<svg id="Layer_1" data-name="Layer 1" xmlns="http://www.w3.org/2000/svg" viewBox="0 0 25 25"><defs><style>.cls-1{fill:#809778;}.cls-2{fill:#fff;}</style></defs><rect class="cls-1" x="-0.19" y="-0.19" width="25.38" height="25.38"/><path class="cls-2" d="M16.4,4.54A2,2,0,0,1,15,4.87c-2,0-2.95-.32-5-.32-1.87,0-3.48.89-3.48,3.63,0,3.53.83,4.7.67,8.22A7.59,7.59,0,0,1,6,20.24h5.23c0-4.52-1.68-6.27-1.68-7.37,0-.71.78-.95,1.45-.95a5,5,0,0,1,4.77,4.62,1.91,1.91,0,0,1-1.63,2,1,1,0,0,1-1-.56A1.29,1.29,0,0,0,12.72,19c0,.73.76,1.46,2.29,1.46,2.33,0,4-2.17,4-4.72a8.31,8.31,0,0,0-3.54-6.3,7.66,7.66,0,0,1-4.18,1.21c-1.6,0-3.34-.78-3.34-2.38A1.2,1.2,0,0,1,9.18,7c1.59-.06,3.06.74,5.17.74a2.17,2.17,0,0,0,2.43-2.13A1.51,1.51,0,0,0,16.4,4.54Z"/></svg>