<?xml version="1.0" standalone="no"?>
<!DOCTYPE svg PUBLIC "-//W3C//DTD SVG 20010904//EN"
 "http://www.w3.org/TR/2001/REC-SVG-20010904/DTD/svg10.dtd">
<svg version="1.0" xmlns="http://www.w3.org/2000/svg"
 width="700.000000pt" height="700.000000pt" viewBox="0 0 700.000000 700.000000"
 preserveAspectRatio="xMidYMid meet">
<metadata>
Created by abdrhnf, written by Abdurrahman Hanif 2023
</metadata>
<g transform="translate(0.000000,700.000000) scale(0.100000,-0.100000)"
fill="#000000" stroke="none">
<path d="M3285 6158 c-27 -10 -77 -27 -110 -39 -33 -11 -73 -26 -90 -33 -16
-8 -103 -40 -192 -72 l-161 -59 -25 -85 -24 -85 27 -50 c15 -27 51 -93 80
-145 29 -52 66 -120 83 -150 16 -30 40 -74 53 -98 20 -36 23 -52 18 -105 -14
-158 -50 -327 -106 -492 -39 -116 -53 -147 -150 -343 -79 -160 -81 -163 -96
-140 -84 123 -262 243 -434 295 -120 35 -344 50 -438 29 -14 -4 -38 -9 -54
-11 -15 -3 -60 -17 -99 -30 -242 -85 -478 -294 -662 -586 -54 -87 -132 -253
-181 -386 -49 -136 -79 -264 -109 -468 -10 -68 -14 -456 -5 -540 41 -405 170
-744 392 -1035 66 -86 251 -267 328 -322 187 -131 350 -216 525 -273 125 -41
243 -70 330 -80 28 -4 56 -8 63 -11 76 -24 532 -24 692 2 251 39 462 105 675
209 264 129 442 259 650 475 172 178 343 426 445 645 67 145 81 178 113 265
44 119 100 313 123 425 12 58 44 258 50 310 3 33 8 69 10 80 2 11 7 74 10 140
4 66 8 122 11 124 3 4 147 -38 273 -80 190 -63 452 -92 580 -65 231 50 409
241 486 518 46 169 41 409 -12 573 -41 124 -164 331 -190 321 -7 -3 -44 -25
-81 -49 -37 -25 -113 -74 -169 -109 l-101 -65 -17 -93 -17 -92 36 -57 c20 -31
85 -135 144 -231 108 -174 108 -175 82 -180 -39 -8 -197 16 -330 49 -116 30
-229 68 -383 130 -75 30 -116 48 -353 161 -265 126 -567 230 -740 255 -22 3
-64 9 -93 14 -55 8 -209 7 -251 -3 -220 -51 -411 -251 -484 -506 -69 -239 -45
-489 69 -726 24 -50 61 -110 81 -133 l38 -42 73 45 c41 26 75 46 77 46 1 0 49
28 106 63 l103 63 21 91 22 91 -29 54 c-45 83 -98 187 -100 195 0 5 -11 24
-23 43 -12 19 -41 73 -64 119 l-43 84 70 -6 c109 -11 286 -67 532 -169 96 -40
109 -45 260 -116 47 -21 96 -43 109 -47 22 -7 23 -10 16 -64 -3 -31 -8 -75
-10 -97 -6 -65 -43 -270 -66 -364 -109 -461 -325 -864 -624 -1166 -160 -163
-281 -254 -460 -349 -166 -88 -393 -158 -585 -182 -84 -10 -347 -10 -429 0
-275 34 -527 136 -741 300 -108 82 -258 242 -331 351 -26 37 -26 39 -9 60 349
412 780 949 993 1237 643 870 955 1467 1023 1957 5 39 5 230 -1 277 -3 22 -7
54 -10 70 -2 17 -7 48 -11 70 -9 57 -68 258 -101 340 l-28 71 -50 -18z m-1636
-1909 c14 -11 150 -105 301 -209 151 -103 296 -203 322 -222 l47 -34 -52 -82
c-195 -310 -398 -601 -687 -985 -96 -128 -191 -254 -210 -280 -19 -25 -38 -46
-42 -47 -17 -1 -93 278 -113 415 -22 149 -25 197 -26 375 0 178 7 247 45 429
7 30 53 176 69 216 54 134 153 298 241 399 52 59 59 61 105 25z"/>
</g>
</svg>
