<?xml version="1.0" encoding="utf-8"?>
<!-- Generator: Adobe Illustrator 28.0.0, SVG Export Plug-In . SVG Version: 6.00 Build 0)  -->
<svg version="1.1" id="Layer_1" xmlns="http://www.w3.org/2000/svg" xmlns:xlink="http://www.w3.org/1999/xlink" x="0px" y="0px"
	 viewBox="0 0 700 700" style="enable-background:new 0 0 700 700;" xml:space="preserve">
<style type="text/css">
	.st0{fill:#809778;}
</style>
<path class="st0" d="M481.1,82.5c-8.2,8.8-26.2,11-46.7,11c-66,0-99.1-10.9-168-10.9c-62.9,0-117.1,30-117.1,122.2
	c0,118.6,28,158,22.6,276.4c-2.4,52.6-19.4,100.1-39.6,129h175.9c0-152-56.5-210.8-56.5-247.9c0-24,26.1-31.8,48.6-31.8
	c87.4,0,160.4,82.1,160.4,155.1c0,31.3-24.3,65.8-54.9,65.8c-14.7,0-24.2-3.1-33.9-18.8c-12.1,12.1-14.4,21.9-14.4,35.6
	c0,24.6,25.5,49.2,76.9,49.2c78.3,0,133.5-72.9,133.5-158.6c0-109.9-89.9-195.1-118.9-211.6c-29.1,19.2-79.2,40.4-140.5,40.4
	c-53.8,0-112.4-26.1-112.4-79.9c0-26.7,18.3-41,42.3-42c53.6-2.1,103.1,24.8,173.8,24.8c50.6,0,81.6-30,81.6-71.6
	C493.7,105.3,490,91.3,481.1,82.5z"/>
</svg>
